<?xml version="1.0" encoding="UTF-8" standalone="no"?>
<svg
   xmlns:dc="http://purl.org/dc/elements/1.1/"
   xmlns:cc="http://creativecommons.org/ns#"
   xmlns:rdf="http://www.w3.org/1999/02/22-rdf-syntax-ns#"
   xmlns:svg="http://www.w3.org/2000/svg"
   xmlns="http://www.w3.org/2000/svg"
   xmlns:sodipodi="http://sodipodi.sourceforge.net/DTD/sodipodi-0.dtd"
   xmlns:inkscape="http://www.inkscape.org/namespaces/inkscape"
   version="1.1"
   x="0px"
   y="0px"
   width="720px"
   height="720px"
   viewBox="0 0 720 720"
   xml:space="preserve"
   id="svg4106"
   inkscape:version="0.48.5 r10040"
   sodipodi:docname="biblepix1.svg"><defs
     id="defs4215" /><sodipodi:namedview
     pagecolor="#ffffff"
     bordercolor="#666666"
     borderopacity="1"
     objecttolerance="10"
     gridtolerance="10"
     guidetolerance="10"
     id="namedview4213"
     showgrid="true"
     inkscape:zoom="0.32777778"
     inkscape:cx="701.37092"
     inkscape:cy="360"
     inkscape:window-x="0"
     inkscape:window-y="0"
     inkscape:window-maximized="0"
     inkscape:current-layer="svg4106"><inkscape:grid
       type="xygrid"
       id="grid4464" /></sodipodi:namedview><g
     id="Sky__x28_gradient_x29_"
     display="none"><radialGradient
       id="SVGID_1_"
       cx="178.1157"
       cy="129.1016"
       r="532.8616"
       gradientUnits="userSpaceOnUse"><stop
         offset="0"
         style="stop-color:#FFFFFF"
         id="stop4113" /><stop
         offset="0.3596"
         style="stop-color:#9FD4FA"
         id="stop4115" /><stop
         offset="0.8775"
         style="stop-color:#93D2FE"
         id="stop4117" /><stop
         offset="1"
         style="stop-color:#8FD2FF"
         id="stop4119" /></radialGradient><rect
       x="1"
       display="inline"
       width="720"
       height="720"
       id="rect4121"
       fill="url(#SVGID_1_)" /></g><metadata
     id="metadata4211"><rdf:RDF><cc:Work><dc:format>image/svg+xml</dc:format><dc:type
           rdf:resource="http://purl.org/dc/dcmitype/StillImage" /><cc:license
           rdf:resource="http://creativecommons.org/licenses/publicdomain/" /><dc:publisher><cc:Agent
             rdf:about="http://openclipart.org/"><dc:title>Open Clip Art Library</dc:title></cc:Agent></dc:publisher><dc:title>Landscape</dc:title><dc:date>2013-02-28T03:09:01</dc:date><dc:description>A simple landscape backdrop that can be used for Flash animation and other purposes.</dc:description><dc:source>http://openclipart.org/detail/175353/landscape-by-jsstrn-175353</dc:source><dc:creator><cc:Agent><dc:title>jsstrn</dc:title></cc:Agent></dc:creator><dc:subject><rdf:Bag><rdf:li>backdrop</rdf:li><rdf:li>background</rdf:li><rdf:li>clip art</rdf:li><rdf:li>clipart</rdf:li><rdf:li>clouds</rdf:li><rdf:li>day</rdf:li><rdf:li>field</rdf:li><rdf:li>grass</rdf:li><rdf:li>greenery</rdf:li><rdf:li>ground</rdf:li><rdf:li>land</rdf:li><rdf:li>landscape</rdf:li><rdf:li>lovely day</rdf:li><rdf:li>meadow</rdf:li><rdf:li>scene</rdf:li><rdf:li>scenery</rdf:li><rdf:li>sky</rdf:li><rdf:li>sun</rdf:li><rdf:li>sunshine</rdf:li><rdf:li>view</rdf:li></rdf:Bag></dc:subject></cc:Work><cc:License
         rdf:about="http://creativecommons.org/licenses/publicdomain/"><cc:permits
           rdf:resource="http://creativecommons.org/ns#Reproduction" /><cc:permits
           rdf:resource="http://creativecommons.org/ns#Distribution" /><cc:permits
           rdf:resource="http://creativecommons.org/ns#DerivativeWorks" /></cc:License></rdf:RDF></metadata><g
     id="g5018"><g
       transform="translate(-1,0)"
       clip-path="none"
       id="Sky"><path
         sodipodi:nodetypes="ccccc"
         inkscape:connector-curvature="0"
         id="rect4109"
         d="m 1,0 760,0 0,720 -760,0 z"
         style="fill:#7ccce8" /></g></g><g
     id="g5181"
     transform="matrix(1,0,0,0.91836448,0,22.042996)"><g
       transform="translate(24.40678,3.05085)"
       id="Ground"><path
         style="fill:#397243"
         inkscape:connector-curvature="0"
         id="path4124"
         d="M 735.59322,556.94915 0.764,548.64 c 0,0 -0.764,-17.558 0.236,-79.055 774.47,-13.5 127.53122,-353.36285 734.59322,-112.63585 1.963,25.499 0,200 0,200 z"
         sodipodi:nodetypes="ccccc" /><path
         style="fill:#3b8c4b"
         inkscape:connector-curvature="0"
         id="path4126"
         d="M 735.59322,756.94915 -24.597,753.07 c 0,0 -0.778,-358.482 0.222,-419.979 423.275,-177.478 156.19122,52.86115 759.96822,103.85815 -1,149.043 0,320 0,320 z"
         sodipodi:nodetypes="ccccc" /></g></g><g
     id="Sun"
     transform="matrix(1.2,0,0,1.2,380.758,-33.120599)"><g
       id="g4205"><path
         inkscape:connector-curvature="0"
         id="circle4207"
         d="m 261.70501,125.603 c 0,47.21758 -38.27742,85.495 -85.495,85.495 -47.21759,0 -85.495006,-38.27742 -85.495006,-85.495 0,-47.217589 38.277416,-85.495006 85.495006,-85.495006 47.21758,0 85.495,38.277417 85.495,85.495006 z"
         style="fill:#f4b71e" /><path
         inkscape:connector-curvature="0"
         id="circle4209"
         d="m 240.20701,125.103 c 0,34.79228 -28.20472,62.997 -62.997,62.997 -34.79229,0 -62.997,-28.20472 -62.997,-62.997 0,-34.792286 28.20471,-62.997005 62.997,-62.997005 34.79228,0 62.997,28.204719 62.997,62.997005 z"
         style="fill:#f28420" /></g></g><g
     id="g5015"
     transform="matrix(1.1662794,0,0,1.3028481,-222.44805,-185.59664)"><path
       inkscape:connector-curvature="0"
       id="path4466"
       d="m 386.289,661.75696 c -1.63511,-1.13943 -2.97293,-2.871 -2.97293,-3.84794 0,-3.30396 -10.81922,-6.46821 -24.07758,-7.04186 -9.45727,-0.4092 -19.89256,0.48219 -40.79811,3.48499 -48.03605,6.89973 -76.89385,8.83204 -76.93151,5.15134 -0.0621,-6.06854 5.54283,-144.62209 6.16545,-152.40945 0.74264,-9.28839 0.96882,-9.81134 5.59697,-12.94019 2.65268,-1.79335 4.98881,-3.09572 5.19139,-2.89418 0.20258,0.20155 -1.10876,34.77024 -2.91409,76.81931 -1.80533,42.04906 -3.29122,77.29245 -3.30198,78.31862 -0.0162,1.54413 2.80513,1.72439 16.36656,1.04566 18.19286,-0.91054 30.91219,-2.93187 53.42641,-8.49046 11.96334,-2.95366 18.20572,-3.73512 29.84188,-3.73581 13.90571,-8.1e-4 15.20544,0.23827 23.65818,4.35191 4.91925,2.39403 11.97433,6.73581 15.67796,9.64841 3.75257,2.95109 8.20343,5.29563 10.05322,5.29563 1.82565,0 7.20593,-2.70303 11.95619,-6.00675 4.75025,-3.30371 12.15285,-7.63932 16.45023,-9.63468 10.90053,-5.06135 27.48335,-4.98669 46.60504,0.20982 21.37449,5.80875 37.14085,8.67297 55.24652,10.03646 9.29192,0.69974 17.17094,0.99712 17.50895,0.66084 0.33801,-0.33628 -1.22626,-35.78979 -3.47615,-78.78556 -2.24989,-42.99577 -4.0056,-78.27895 -3.90157,-78.40707 0.10407,-0.12811 3.04333,0.99625 6.53177,2.49859 6.04362,2.60277 6.34261,2.98135 6.34261,8.03123 0,6.17851 6.28787,135.79322 7.23159,149.06819 l 0.63862,8.983 -10.4816,0 c -13.5969,0 -31.33286,-1.79805 -67.61488,-6.85473 -41.32056,-5.75892 -61.36357,-4.33192 -64.78158,4.61223 -1.54938,4.05438 -4.67174,4.86336 -18.8579,4.88597 -8.18295,0.0133 -12.24696,-0.56734 -14.37966,-2.05352 z m 4.45078,-25.56774 c -18.14573,-18.90975 -31.35959,-21.28717 -62.26708,-11.20299 -23.5663,7.68898 -37.49353,10.82818 -52.24334,11.77565 l -12.78287,0.82112 0.44153,-8.50292 c 0.93625,-18.03039 5.7296,-137.8831 5.729,-143.24791 l -6.2e-4,-5.65597 5.84417,0 c 11.65136,0 30.08992,-4.2296 53.68095,-12.31382 20.60544,-7.06112 25.42786,-8.2494 33.44108,-8.24018 10.22092,0.0118 18.53033,3.33526 27.01159,10.80376 l 4.27166,3.76158 2.1376,55.22881 c 1.17566,30.37585 2.52509,66.00841 2.99872,79.18348 1.0384,28.88592 2.37808,24.91605 3.59277,-10.64652 0.47501,-13.90701 1.75957,-47.41609 2.85457,-74.46462 2.27522,-56.20209 1.03961,-51.54121 15.77133,-59.49124 7.36014,-3.97194 9.31942,-4.43655 18.27625,-4.33393 8.59632,0.0985 12.61712,1.07256 28.09051,6.80512 24.22355,8.97432 44.19594,13.67139 58.24311,13.69751 l 5.40619,0.0101 3.00484,75.52373 c 1.65266,41.53806 2.982,76.96151 2.95407,78.71879 l -0.0507,3.19506 -12.3732,-0.8392 c -13.53095,-0.91772 -29.1223,-4.45408 -53.84014,-12.21177 -29.78447,-9.34787 -42.46905,-6.90272 -61.33312,11.82289 l -9.56197,9.49179 -9.29683,-9.68828 z"
       style="fill:#afa850;fill-opacity:1" /></g>
</svg>
